<svg id="Layer_1" data-name="Layer 1" xmlns="http://www.w3.org/2000/svg" viewBox="0 0 17.85 21.33"><defs><style>.cls-1,.cls-2{fill:none;stroke:#fff;stroke-miterlimit:10;stroke-width:0.75px;}.cls-2{stroke-linecap:round;}.cls-3{fill:#fff;}</style></defs><line class="cls-1" x1="3.34" y1="7.18" x2="14.5" y2="7.18"/><rect class="cls-1" x="0.37" y="7.18" width="2.97" height="8.03" rx="1.48"/><rect class="cls-1" x="14.5" y="7.18" width="2.97" height="8.03" rx="1.48"/><path class="cls-1" d="M14.5,7.42v8A1.57,1.57,0,0,1,12.93,17v2.53a1.49,1.49,0,0,1-3,0V17H8.4v2.53a1.49,1.49,0,0,1-3,0V17H4.91a1.57,1.57,0,0,1-1.57-1.57V7.18A5.58,5.58,0,0,1,9.47,1.63,5.74,5.74,0,0,1,14.5,7.42Z"/><line class="cls-2" x1="11.45" y1="2.2" x2="12.6" y2="0.38"/><line class="cls-2" x1="6.4" y1="2.2" x2="5.25" y2="0.38"/><circle class="cls-3" cx="6.4" cy="4.38" r="0.45"/><circle class="cls-3" cx="11.57" cy="4.38" r="0.45"/></svg>