<svg id="Layer_1" data-name="Layer 1" xmlns="http://www.w3.org/2000/svg" viewBox="0 0 25.81 22.64"><defs><style>.cls-1{fill:none;}.cls-1,.cls-2{stroke:#fff;stroke-miterlimit:10;stroke-width:0.75px;}.cls-2{fill:#0c0c0c;}</style></defs><rect class="cls-1" x="0.38" y="2.89" width="24.17" height="17.42" rx="1.24"/><line class="cls-1" x1="5.11" y1="2.88" x2="5.11"/><line class="cls-1" x1="19.24" y1="2.88" x2="19.24"/><line class="cls-1" x1="0.7" y1="6.47" x2="24.41" y2="6.47"/><circle class="cls-2" cx="20.28" cy="17.11" r="5.16"/><path class="cls-1" d="M17.37,17.55l1.38,1.28a.26.26,0,0,0,.36,0l4-4"/><line class="cls-1" x1="6.32" y1="9.46" x2="7.19" y2="9.46"/><line class="cls-1" x1="10.05" y1="9.46" x2="10.92" y2="9.46"/><line class="cls-1" x1="13.78" y1="9.46" x2="14.66" y2="9.46"/><line class="cls-1" x1="17.51" y1="9.46" x2="18.39" y2="9.46"/><line class="cls-1" x1="6.32" y1="12.55" x2="7.19" y2="12.55"/><line class="cls-1" x1="10.05" y1="12.55" x2="10.92" y2="12.55"/><line class="cls-1" x1="13.78" y1="12.55" x2="14.66" y2="12.55"/><line class="cls-1" x1="6.32" y1="15.65" x2="7.19" y2="15.65"/><line class="cls-1" x1="10.05" y1="15.65" x2="10.92" y2="15.65"/></svg>