<svg id="Layer_1" data-name="Layer 1" xmlns="http://www.w3.org/2000/svg" viewBox="0 0 32.44 14.45"><defs><style>.cls-1,.cls-2{fill:none;stroke:#fff;stroke-miterlimit:10;stroke-width:0.75px;}.cls-2{stroke-linecap:round;}</style></defs><path class="cls-1" d="M11.72.38h.82a0,0,0,0,1,0,0v13.7a0,0,0,0,1,0,0h-.82A6.85,6.85,0,0,1,4.87,7.23v0A6.85,6.85,0,0,1,11.72.38Z"/><line class="cls-2" x1="4.87" y1="7.23" x2="0.5" y2="7.23"/><path class="cls-1" d="M26.17.37H27a0,0,0,0,1,0,0v13.7a0,0,0,0,1,0,0h-.82a6.85,6.85,0,0,1-6.85-6.85v0A6.85,6.85,0,0,1,26.17.37Z" transform="translate(46.31 14.45) rotate(180)"/><line class="cls-2" x1="26.99" y1="7.23" x2="31.94" y2="7.23"/><line class="cls-2" x1="14.99" y1="3.91" x2="19.32" y2="3.91"/><line class="cls-2" x1="14.99" y1="10.46" x2="19.32" y2="10.46"/></svg>