<svg id="Layer_1" data-name="Layer 1" xmlns="http://www.w3.org/2000/svg" viewBox="0 0 10.35 20.97"><defs><style>.cls-1{fill:none;stroke:#fff;stroke-miterlimit:10;stroke-width:0.5px;}.cls-2{fill:#fff;}</style></defs><path class="cls-1" d="M8.93.25H1.42A1.18,1.18,0,0,0,.25,1.42V19.55a1.17,1.17,0,0,0,1.17,1.17H8.93a1.17,1.17,0,0,0,1.17-1.17V1.42A1.18,1.18,0,0,0,8.93.25Z"/><line class="cls-1" x1="0.33" y1="2.03" x2="10.1" y2="2.03"/><line class="cls-1" x1="0.33" y1="18.89" x2="10.1" y2="18.89"/><path class="cls-2" d="M2.51,10.05c0-.44,0-.88,0-1.32a.24.24,0,0,1,.13-.23L5,7.18a.26.26,0,0,1,.27,0L7.52,8.5a.24.24,0,0,1,.14.23c0,.88,0,1.75,0,2.63a.25.25,0,0,1-.13.22L5.21,12.91a.24.24,0,0,1-.26,0l-2.3-1.32a.25.25,0,0,1-.14-.24C2.52,10.91,2.51,10.48,2.51,10.05ZM7.31,9,7.17,9c-.6.34-1.19.69-1.79,1a.23.23,0,0,0-.13.22c0,.68,0,1.36,0,2.05v.13h0c.65-.37,1.29-.73,1.93-1.11a.18.18,0,0,0,.07-.15c0-.29,0-.58,0-.88Zm-2.4,3.51V10.22c0-.05-.06-.11-.1-.14L3,9,2.87,9a.35.35,0,0,1,0,.06c0,.73,0,1.46,0,2.19a.18.18,0,0,0,.1.14c.6.36,1.21.7,1.82,1.05ZM7.12,8.67l0,0c-.64-.37-1.28-.74-1.93-1.1a.18.18,0,0,0-.16,0L3.6,8.35,3,8.66l0,0L5,9.8a.22.22,0,0,0,.16,0L6.49,9Z"/></svg>