<svg id="Layer_1" data-name="Layer 1" xmlns="http://www.w3.org/2000/svg" viewBox="0 0 17.92 21.62"><defs><style>.cls-1,.cls-2{fill:#fff;}.cls-2{stroke:#fff;stroke-miterlimit:10;stroke-width:0.25px;}</style></defs><path class="cls-1" d="M13.19,10.39c-3,0-5.95,0-8.92,0a.49.49,0,0,0-.21,0L1.78,11.57l2.28,1.14a.58.58,0,0,0,.19,0h9a1.18,1.18,0,0,0,1.13-.88A1.21,1.21,0,0,0,13.19,10.39ZM4.05,12.2,2.8,11.57l1.25-.63Zm8.14.08H4.52V10.87h7.67Zm1.13,0h-.65V10.84a7.19,7.19,0,0,1,.81.05.69.69,0,0,1,.51.77A.72.72,0,0,1,13.32,12.28Z"/><path class="cls-1" d="M3.3,17.73v-.38l3-1.53v.6L4,17.53l0,0v.09l0,0,2.31,1.11v.6Z"/><path class="cls-1" d="M9.17,14.4,7.63,20.13H7.12L8.67,14.4Z"/><path class="cls-1" d="M13,17.73l-3,1.53v-.6l2.31-1.11v0L10,16.42v-.6l3,1.53Z"/><path class="cls-2" d="M16.23,21.5H.13v-.22q0-9.68,0-19.36A1.82,1.82,0,0,1,1.85.13c.16,0,.32,0,.47,0H15.87a1.82,1.82,0,0,1,1.59.75,1.52,1.52,0,0,1,.33.89c0,.65,0,1.3,0,2H16.23ZM15.75,21V3.74H3.28V1.94A1.33,1.33,0,0,0,1.91.6,1.34,1.34,0,0,0,.59,1.94V21ZM17.34,3.27v-.2c0-.34,0-.68,0-1A1.41,1.41,0,0,0,15.9.59c-4.18,0-8.35,0-12.52,0l-.2,0a1.93,1.93,0,0,1,.56,1.61v1Z"/><path class="cls-1" d="M12.43,7.42H10.36a2.55,2.55,0,0,0-1,0c-.28.11-.48.43-.71.66l-.61.64c-.33-.34-.66-.63-.94-1a1.05,1.05,0,0,0-.93-.39c-.83,0-1.67,0-2.5,0a1.08,1.08,0,0,1-1.29.79,1.05,1.05,0,0,1-.81-1,1.08,1.08,0,0,1,.8-1C3,6,3.4,6.3,3.71,7H6.6a.46.46,0,0,0,.27-.11l1.2-1.2c.39.39.77.76,1.14,1.15A.53.53,0,0,0,9.64,7h2.79c.3-.66.73-.91,1.29-.79a1,1,0,0,1-.05,2.05A1.09,1.09,0,0,1,12.43,7.42ZM8.06,8l.83-.83-.82-.83-.84.83Zm-6-.83a.59.59,0,1,0,.59-.58A.59.59,0,0,0,2.08,7.19Zm12,0a.59.59,0,0,0-.58-.59.6.6,0,0,0-.6.57.6.6,0,0,0,.58.59A.59.59,0,0,0,14.07,7.2Z"/></svg>