<svg id="Layer_1" data-name="Layer 1" xmlns="http://www.w3.org/2000/svg" viewBox="0 0 21.27 23.64"><defs><style>.cls-1{fill:none;stroke:#fff;stroke-miterlimit:10;stroke-width:0.75px;}.cls-2{fill:#0c0c0c;}</style></defs><path class="cls-1" d="M.76,1.58V6.31A1.17,1.17,0,0,0,1.88,7.52H7.23L9.09,8.86,8.75,7.52h0A1.17,1.17,0,0,0,9.88,6.31V1.58A1.16,1.16,0,0,0,8.75.38H1.88A1.16,1.16,0,0,0,.76,1.58Z"/><circle class="cls-1" cx="5.31" cy="15.52" r="3.03"/><path class="cls-1" d="M.11,21.34a6.36,6.36,0,0,1,10.39,0"/><circle class="cls-1" cx="14.1" cy="9.04" r="3.03"/><path class="cls-1" d="M8.9,14.86a6.38,6.38,0,0,1,10.39,0"/><line class="cls-1" x1="2.33" y1="14.91" x2="0.2" y2="14.91"/><line class="cls-1" x1="21.22" y1="14.91" x2="8.27" y2="14.91"/><rect class="cls-2" x="-0.62" y="20.89" width="12.14" height="2.75"/></svg>