<svg id="Layer_1" data-name="Layer 1" xmlns="http://www.w3.org/2000/svg" viewBox="0 0 27.64 15.76"><defs><style>.cls-1{fill:#fff;}</style></defs><path class="cls-1" d="M27.31,8.9c-.82-1.76-1.64-3.53-2.45-5.29L23.8,1.32c-.08-.16-.16-.26-.25-.29a.52.52,0,0,0-.37.08l-.91.45L19.68,2.84a.86.86,0,0,1-.61.05l-2-.56c-.63-.18-1.26-.37-1.89-.54a1.6,1.6,0,0,0-.55-.06c-.5,0-1.13.07-1.72.15a4.91,4.91,0,0,1-.55,0,2.07,2.07,0,0,0-1,.2.39.39,0,0,1-.27,0l-.58,0L8.21,2a1.47,1.47,0,0,1-.47-.11L5.33.91,3.92.31A.65.65,0,0,0,3.67.25l-.12,0a.5.5,0,0,0-.22.29l-3,7.81c-.09.23-.11.39,0,.49S.56,9,.73,9L2,9.15l3.87.37a1.22,1.22,0,0,1,.59.24c2.15,1.74,4.31,3.48,6.45,5.23a2.27,2.27,0,0,0,1.73.51l.48-.09a2.46,2.46,0,0,1,1.24,0,1.59,1.59,0,0,0,1.13-.82.56.56,0,0,1,.63-.25,1.43,1.43,0,0,0,1.19-.18,1.21,1.21,0,0,0,.43-.93V13L20,13h.12a1.09,1.09,0,0,0,1-.71,2.57,2.57,0,0,0,.12-.71c0-.12,0-.24,0-.36a.43.43,0,0,1,.11-.37l.19-.17a1.49,1.49,0,0,1,1-.53l2.23-.27,2.1-.26a.51.51,0,0,0,.41-.2A.56.56,0,0,0,27.31,8.9ZM6.08,8.85l-5-.48L3.89,1,7.5,2.54ZM20.57,12a.61.61,0,0,1-.39.28,1.09,1.09,0,0,1-1-.27c-.89-.88-1.79-1.74-2.69-2.6l-.36-.34a.5.5,0,0,0-.37-.15.33.33,0,0,0-.23.19c-.05.11-.09.24.15.46l.7.68c.76.74,1.53,1.47,2.3,2.2a1,1,0,0,1,.3,1l-.05.18h-.18a1.6,1.6,0,0,1-1.3-.36l-1.67-1.53-1.14-1a.34.34,0,0,0-.42-.1.3.3,0,0,0-.2.22.43.43,0,0,0,.16.37l1.47,1.35,1.42,1.29L17,14a.72.72,0,0,1-.07.15c-.18.26-.33.47-.56.5s-.43-.15-.64-.36c-.74-.67-1.46-1.36-2.18-2-.18-.17-.28-.18-.39-.16a.3.3,0,0,0-.25.22.39.39,0,0,0,.12.38l1.07,1,1.05,1-.53.07-.3,0a1.38,1.38,0,0,1-.92-.31L7,9.3a.59.59,0,0,1-.19-.51q.54-2.47,1.1-4.93l.23-1,.07-.16.18,0,2.55.12-.45.69c-.15.23-.3.45-.43.68a1.16,1.16,0,0,0-.16.51,8.3,8.3,0,0,0,.24,1.64,1.44,1.44,0,0,0,.82.93,1.5,1.5,0,0,0,1.29-.08A5.93,5.93,0,0,0,13,6.66l.2-.16a4,4,0,0,0,.31-.27c.14-.12.27-.24.42-.35a1.38,1.38,0,0,1,1.67,0,4.52,4.52,0,0,1,.78.63c1.1,1.15,2.18,2.31,3.27,3.47l.77.82A1.13,1.13,0,0,1,20.57,12Zm.53-1.82-.17.1-.9-1L18.38,7.55c-.49-.52-1-1-1.49-1.55a3.65,3.65,0,0,0-1.57-1,1.93,1.93,0,0,0-1.7.31c-.2.14-.38.3-.57.46l-.37.31-.12.1a4.29,4.29,0,0,1-.6.42.86.86,0,0,1-.76.06.84.84,0,0,1-.45-.6,9.65,9.65,0,0,1-.15-1l0-.13a.62.62,0,0,1,.14-.42c.32-.52.66-1,1-1.54a.72.72,0,0,1,.46-.28q1.25-.12,2.49-.21a1.35,1.35,0,0,1,.47.06l1.41.41,2.09.59a.9.9,0,0,1,.63.57q1.05,2.61,2.13,5.2A.65.65,0,0,1,21.1,10.17Zm3.29-1c-.64.08-1.23.16-1.82.22h0a.49.49,0,0,1-.45-.27c-.63-1.52-1.25-3-1.87-4.58l-.42-1,3.49-1.74,3.3,7.11Z"/></svg>