<svg id="Layer_1" data-name="Layer 1" xmlns="http://www.w3.org/2000/svg" viewBox="0 0 33.35 20.48"><defs><style>.cls-1{fill:none;stroke:#fff;stroke-miterlimit:10;stroke-width:0.75px;}</style></defs><polyline class="cls-1" points="8.61 16.85 21.91 16.85 22.27 16.85 22.27 5.55 22.27 0.38 0.38 0.38 0.38 16.85 3.27 16.85"/><polyline class="cls-1" points="21.91 16.85 22.27 16.85 25.14 16.85"/><path class="cls-1" d="M30.49,16.85h1.06A1.43,1.43,0,0,0,33,15.42V10.6a1.53,1.53,0,0,0-.3-.88L29.39,5.48a1.49,1.49,0,0,0-1.14-.56H22.19"/><path class="cls-1" d="M25.72,4.85v4A1.25,1.25,0,0,0,27,10.1h6"/><path class="cls-1" d="M7.46,9.13l1.83,1.69a.33.33,0,0,0,.47,0L15.08,5.5"/><circle class="cls-1" cx="5.94" cy="17.38" r="2.72"/><circle class="cls-1" cx="27.82" cy="17.38" r="2.72"/></svg>