<svg id="Layer_1" data-name="Layer 1" xmlns="http://www.w3.org/2000/svg" viewBox="0 0 13.65 21.7"><defs><style>.cls-1,.cls-2,.cls-3{fill:none;stroke:#fff;stroke-miterlimit:10;}.cls-1{stroke-width:0.77px;}.cls-2{stroke-width:0.89px;}.cls-3{stroke-width:0.95px;}</style></defs><path class="cls-1" d="M4.81,19h4.1a0,0,0,0,1,0,0v1.7a.59.59,0,0,1-.59.59H5.4a.59.59,0,0,1-.59-.59V19A0,0,0,0,1,4.81,19Z"/><path class="cls-2" d="M10,16.68c0-.36,0-.69.09-1a9,9,0,0,1,1.55-3.81,14.43,14.43,0,0,0,.82-1.36,6.62,6.62,0,0,0,.7-4.26C12.43,1.52,7.61-1,3.74,1.31A7,7,0,0,0,.69,9.14,9.14,9.14,0,0,0,2,11.68a9.2,9.2,0,0,1,1.57,3.54c.09.48.13,1,.19,1.47Z"/><path class="cls-3" d="M3.79,16.84H9.92a0,0,0,0,1,0,0v1.7a.59.59,0,0,1-.59.59h-5a.59.59,0,0,1-.59-.59v-1.7A0,0,0,0,1,3.79,16.84Z"/><circle class="cls-2" cx="6.85" cy="7.6" r="2.27"/><path class="cls-2" d="M10,8.59a3.35,3.35,0,0,1-.23.55l.48.49L8.89,11l-.49-.49a3.76,3.76,0,0,1-.55.23v.69h-2v-.69a2.66,2.66,0,0,1-.55-.23L4.82,11,3.41,9.63l.49-.49a3.35,3.35,0,0,1-.23-.55H3v-2h.69a3.76,3.76,0,0,1,.23-.55l-.49-.49,1.41-1.4.49.48a3.35,3.35,0,0,1,.55-.23V3.72h2v.69a3.76,3.76,0,0,1,.55.23l.49-.48,1.4,1.4-.48.49A3.76,3.76,0,0,1,10,6.6h.68v2Z"/></svg>