<svg id="Layer_1" data-name="Layer 1" xmlns="http://www.w3.org/2000/svg" viewBox="0 0 10.2 20.02"><defs><style>.cls-1{fill:#fff;}</style></defs><path class="cls-1" d="M3.1,15.41v-.92c0-.89,0-1.77,0-2.65,0-.25,0-.49,0-.74a.26.26,0,0,0-.27-.28l-.63,0H.39c-.34,0-.38,0-.38-.38,0-.86,0-1.72,0-2.58,0-.35.07-.4.41-.41H2.7c.3,0,.36-.08.36-.39,0-.66,0-1.32,0-2a6.72,6.72,0,0,1,.26-2.14A4,4,0,0,1,6.75.05a20.3,20.3,0,0,1,3,0c.3,0,.43.14.43.45,0,.77,0,1.54,0,2.31,0,.24,0,.28-.29.29s-.76,0-1.14,0-.61,0-.91.05A1.38,1.38,0,0,0,6.61,4.35a2.2,2.2,0,0,0-.05.44c0,.69,0,1.38,0,2.06,0,.1,0,.2,0,.3a.23.23,0,0,0,.24.23,5.09,5.09,0,0,0,.55,0H9.51c.46,0,.55.09.5.55-.1.85-.24,1.7-.35,2.55,0,.21-.14.26-.33.26H7.05c-.43,0-.48.06-.49.5s0,.76,0,1.14c0,2.25,0,4.49,0,6.74a1.61,1.61,0,0,1,0,.22c0,.52-.14.62-.64.62H3.61c-.43,0-.49-.06-.5-.49,0-.79,0-1.57,0-2.36Z"/></svg>