<svg id="Layer_1" data-name="Layer 1" xmlns="http://www.w3.org/2000/svg" viewBox="0 0 17.92 21.62"><defs><style>.cls-1{fill:#fff;stroke-width:0.25px;}.cls-1,.cls-2{stroke:#fff;stroke-miterlimit:10;}.cls-2{fill:none;stroke-width:0.75px;}</style></defs><path class="cls-1" d="M16.23,17.88h1.56c0,.68,0,1.33,0,2a1.52,1.52,0,0,1-.33.88,1.83,1.83,0,0,1-1.59.76h-14A1.81,1.81,0,0,1,.13,19.71Q.12,10,.13.34V.13h16.1ZM.59.59V19.68A1.32,1.32,0,0,0,1.91,21a1.33,1.33,0,0,0,1.37-1.33V17.88H15.75V.59ZM3.74,18.36v1A2,2,0,0,1,3.18,21h.2c4.17,0,8.34,0,12.52,0a1.41,1.41,0,0,0,1.45-1.47c0-.34,0-.68,0-1v-.19Z"/><polygon class="cls-2" points="8.46 12.47 5.27 14.15 5.88 10.59 3.29 8.07 6.87 7.55 8.46 4.31 10.06 7.55 13.63 8.07 11.05 10.59 11.66 14.15 8.46 12.47"/></svg>