<svg id="Layer_1" data-name="Layer 1" xmlns="http://www.w3.org/2000/svg" viewBox="0 0 21.1 21.1"><defs><style>.cls-1{fill:none;stroke:#fff;stroke-miterlimit:10;stroke-width:0.75px;}</style></defs><g id="Group_121" data-name="Group 121"><rect id="Rectangle_48" data-name="Rectangle 48" class="cls-1" x="0.38" y="0.38" width="20.35" height="20.35"/><line id="Line_29" data-name="Line 29" class="cls-1" x1="2.44" y1="4.48" x2="9.24" y2="4.48"/><line id="Line_31" data-name="Line 31" class="cls-1" x1="11.3" y1="4.48" x2="12.73" y2="4.48"/><line id="Line_32" data-name="Line 32" class="cls-1" x1="2.44" y1="13.35" x2="4.03" y2="13.35"/><line id="Line_33" data-name="Line 33" class="cls-1" x1="2.44" y1="7.5" x2="4.03" y2="7.5"/><line id="Line_34" data-name="Line 34" class="cls-1" x1="5.39" y1="7.5" x2="12.18" y2="7.5"/><line id="Line_35" data-name="Line 35" class="cls-1" x1="10.59" y1="10.28" x2="12.18" y2="10.28"/><line id="Line_36" data-name="Line 36" class="cls-1" x1="2.4" y1="10.28" x2="9.2" y2="10.28"/><line id="Line_38" data-name="Line 38" class="cls-1" x1="13.53" y1="7.5" x2="14.97" y2="7.5"/><line id="Line_39" data-name="Line 39" class="cls-1" x1="16.32" y1="7.5" x2="17.76" y2="7.5"/><line id="Line_40" data-name="Line 40" class="cls-1" x1="5.84" y1="13.36" x2="12.63" y2="13.36"/><line id="Line_41" data-name="Line 41" class="cls-1" x1="14.25" y1="13.36" x2="15.69" y2="13.36"/><line id="Line_42" data-name="Line 42" class="cls-1" x1="16.64" y1="13.36" x2="18.08" y2="13.36"/><line id="Line_43" data-name="Line 43" class="cls-1" x1="2.44" y1="16.63" x2="9.24" y2="16.63"/><line id="Line_44" data-name="Line 44" class="cls-1" x1="10.67" y1="16.63" x2="12.1" y2="16.63"/></g></svg>