<svg id="Layer_1" data-name="Layer 1" xmlns="http://www.w3.org/2000/svg" viewBox="0 0 21.25 18.84"><defs><style>.cls-1{fill:none;stroke:#fff;stroke-miterlimit:10;stroke-width:0.75px;}</style></defs><polyline class="cls-1" points="1.16 3.7 3.6 3.7 5.67 14.29 5.82 15.09 5.9 15.48 8.54 15.48 17.36 15.48"/><line class="cls-1" x1="14.07" y1="13.03" x2="5.39" y2="13.03"/><polyline class="cls-1" points="4.07 6.05 18.51 6.05 17.91 10.29"/><circle class="cls-1" cx="8.13" cy="17.21" r="1.26"/><circle class="cls-1" cx="14.83" cy="17.21" r="1.26"/><path class="cls-1" d="M20.9,6.36a8.77,8.77,0,0,1-1.07,1.83,18.86,18.86,0,0,1-6.41,5.19,17.3,17.3,0,0,1-9.27,2.26A4.14,4.14,0,0,1,.7,13.76C-.72,11,2.66,6.46,8.27,3.53,12.92,1.1,17.63.57,19.91,2"/><polyline class="cls-1" points="18.05 2.86 20.19 2.26 19.59 0.1"/></svg>