<svg id="Layer_1" data-name="Layer 1" xmlns="http://www.w3.org/2000/svg" viewBox="0 0 21.55 21.54"><defs><style>.cls-1{fill:#fff;}</style></defs><path class="cls-1" d="M21.55,10.77A10.78,10.78,0,1,1,10.77,0,10.78,10.78,0,0,1,21.55,10.77ZM.76,8.35c.34.08.66.12,1,.22A3.52,3.52,0,0,1,2.66,9a1.73,1.73,0,0,1,.66,1.47,2.59,2.59,0,0,0,.55,1.65,4.81,4.81,0,0,1,.4.6,1.62,1.62,0,0,1,.2,1.43A3.75,3.75,0,0,0,4.39,16a1.57,1.57,0,0,1-.92,1.85l-.09.05a1.43,1.43,0,0,0,.15.18L5.1,19.35a.49.49,0,0,0,.58.1,1.43,1.43,0,0,1,.37-.09c.25,0,.51,0,.76-.08A2.4,2.4,0,0,0,8,18.6a1.36,1.36,0,0,1,2.09.09c.19.21.36.44.54.66a1.06,1.06,0,0,0,.87.43,1,1,0,0,1,.73.24,6.16,6.16,0,0,1,.55.69.19.19,0,0,0,.24.1l.91-.25a10.3,10.3,0,0,0,7-11.38c-.05-.29-.11-.58-.17-.88a2.41,2.41,0,0,1-1.53.17c-.36-.09-.7-.27-1.06-.37A2.43,2.43,0,0,0,17.4,8c-.48,0-.64.4-.36.78a.66.66,0,0,1-.21,1,1.19,1.19,0,0,1-.59.13,8.11,8.11,0,0,1-.82-.12c-.18,0-.38,0-.48.17a.44.44,0,0,0,.07.52,2.66,2.66,0,0,0,.43.39c.22.18.47.32.68.51A1.05,1.05,0,0,1,16.17,13a5.55,5.55,0,0,1-.49.48,2,2,0,0,0-.7,1.21c-.13.63-.22,1.26-.37,1.88a2,2,0,0,1-1,1.4,1.3,1.3,0,0,1-2-.88c0-.12-.05-.23-.06-.35A2.35,2.35,0,0,0,11,15.36,1.1,1.1,0,0,1,10.81,14a.53.53,0,0,0-.17-.73,1.59,1.59,0,0,0-.49-.24,4.67,4.67,0,0,0-.65-.13,3,3,0,0,1-2.41-1.85A2.57,2.57,0,0,1,8.64,7.65a4,4,0,0,1,1.91,0c.55.11,1.08.28,1.62.4a1.41,1.41,0,0,0,1.15-.15.64.64,0,0,0,.12-1.07,1.35,1.35,0,0,0-.59-.36,5.51,5.51,0,0,0-1.15-.18c-.39,0-.79,0-1.19,0a.74.74,0,0,1-.71-.52c-.09-.26,0-.49.32-.72a1.56,1.56,0,0,0,.5-.71A6.37,6.37,0,0,1,11,3.5.94.94,0,0,1,11.69,3a5.19,5.19,0,0,1,.7-.07c.51,0,.69-.2.7-.72s0-.93,0-1.42A10.11,10.11,0,0,0,10.34.49c-.05,0-.1.08-.12.13-.13.29-.24.6-.37.89a1.65,1.65,0,0,1-.67.76,2.2,2.2,0,0,1-1.66.3A3.49,3.49,0,0,1,6,1.83s-.14-.09-.18-.06c-.25.13-.49.28-.75.44a1,1,0,0,1,.11.19,7.71,7.71,0,0,1,.33,1,1.44,1.44,0,0,1-1,1.66,2.34,2.34,0,0,0-1.17,1,2.27,2.27,0,0,1-1.45,1.1l-.71.17c-.06,0-.14,0-.15.1C.93,7.75.85,8.05.76,8.35ZM13.58.88c0,.24,0,.46,0,.68s0,.49,0,.73a1,1,0,0,1-1.11,1.07l-.58,0a.57.57,0,0,0-.46.3c-.08.16-.16.33-.23.51a2.38,2.38,0,0,1-.85,1.3.13.13,0,0,0,0,.24.9.9,0,0,0,.37.07c.44,0,.88-.05,1.32,0a2.66,2.66,0,0,1,1.54.49,1.22,1.22,0,0,1,.56,1.12,1.35,1.35,0,0,1-1.23,1.14,3.84,3.84,0,0,1-1.58-.23A5.83,5.83,0,0,0,9.39,8a2,2,0,0,0-1.95,2.58,2.39,2.39,0,0,0,1.9,1.81c.37.09.75.13,1.1.25a1.14,1.14,0,0,1,.76,1.69.5.5,0,0,0,0,.56,3.15,3.15,0,0,0,.22.29A2.48,2.48,0,0,1,12,16.43a3.18,3.18,0,0,0,.15.68.67.67,0,0,0,.68.52,1.12,1.12,0,0,0,1-.48,2.87,2.87,0,0,0,.38-.81A12.51,12.51,0,0,0,14.41,15a3,3,0,0,1,1.18-2.11l.07-.07c.51-.47.49-.85-.08-1.26-.17-.13-.36-.24-.53-.36a1.43,1.43,0,0,1-.62-.83.8.8,0,0,1,.57-1,3,3,0,0,1,.73,0,4.93,4.93,0,0,0,.76.05c.24,0,.29-.22.13-.41a.91.91,0,0,1,.49-1.47,1.64,1.64,0,0,1,1.07.06c.3.11.59.25.9.36a2.06,2.06,0,0,0,1.54-.1A10.22,10.22,0,0,0,13.58.88ZM.68,8.8C.65,8.91.63,9,.62,9a10.26,10.26,0,0,0,.5,5.32A9.85,9.85,0,0,0,2.9,17.39a.29.29,0,0,0,.2.11,1.07,1.07,0,0,0,.83-1.12,3,3,0,0,0,0-.42,3.37,3.37,0,0,1,0-1.67,1.59,1.59,0,0,0-.31-1.68,3.33,3.33,0,0,1-.8-2.22,1.22,1.22,0,0,0-.77-1.2C1.62,9,1.15,8.93.68,8.8ZM6,19.86a10.09,10.09,0,0,0,6.36,1.06.94.94,0,0,0-.86-.66,1.51,1.51,0,0,1-1.21-.6L10,19.3a3.64,3.64,0,0,0-.42-.46.7.7,0,0,0-.85-.12,2.55,2.55,0,0,0-.47.31,2.67,2.67,0,0,1-1.71.76C6.36,19.8,6.19,19.83,6,19.86ZM4.65,2.5C3.3,3.42,1.44,5.83,1.3,6.83a2.08,2.08,0,0,0,1.63-1,3.25,3.25,0,0,1,.66-.77,3.43,3.43,0,0,1,.81-.47A.94.94,0,0,0,5,3.87,2,2,0,0,0,4.65,2.5Zm1.67-1a2.88,2.88,0,0,0,1.44.64,1.67,1.67,0,0,0,1.36-.4A3,3,0,0,0,9.74.53,10.58,10.58,0,0,0,6.32,1.48Z"/></svg>