<svg id="Layer_1" data-name="Layer 1" xmlns="http://www.w3.org/2000/svg" viewBox="0 0 20 20.03"><defs><style>.cls-1{fill:#fff;}</style></defs><path class="cls-1" d="M20,10c0,1.25,0,2.5,0,3.75a7.62,7.62,0,0,1-.45,2.72,5,5,0,0,1-3,3.05,8.24,8.24,0,0,1-3,.46l-3.28,0c-1.5,0-3,0-4.5-.06a6.42,6.42,0,0,1-2-.35A5.11,5.11,0,0,1,.17,15.2,31,31,0,0,1,0,10.68C0,9,.05,7.26.09,5.55A5.76,5.76,0,0,1,1.23,2.16,4.82,4.82,0,0,1,3.35.55,6.57,6.57,0,0,1,5.83.06C7.72,0,9.61,0,11.49,0c1.18,0,2.35,0,3.52.14a5.23,5.23,0,0,1,3.32,1.5A5.46,5.46,0,0,1,19.51,3.5,8.92,8.92,0,0,1,20,6.61V10ZM1.59,10h0c0,.82,0,1.65,0,2.47s0,1.75.15,2.61a3.46,3.46,0,0,0,2.31,3,6.56,6.56,0,0,0,2.27.38c1.59,0,3.18,0,4.77,0,1.2,0,2.4,0,3.6-.1a3.87,3.87,0,0,0,2.41-1,3.74,3.74,0,0,0,1.17-2.45,24.76,24.76,0,0,0,.13-2.58c0-2.14,0-4.27-.07-6.41a7,7,0,0,0-.24-1.58,3.36,3.36,0,0,0-1.88-2.23,4.94,4.94,0,0,0-2-.46c-1,0-2-.07-3-.06-1.87,0-3.73,0-5.6.08A3.9,3.9,0,0,0,2.65,3,4.12,4.12,0,0,0,1.7,5.69C1.65,7.12,1.63,8.56,1.59,10Z"/><path class="cls-1" d="M4.94,10a5.08,5.08,0,1,1,5.17,5.09A5.05,5.05,0,0,1,4.94,10Zm8.54,0a3.47,3.47,0,1,0-6.93-.11,3.47,3.47,0,1,0,6.93.11Z"/><path class="cls-1" d="M16.49,4.62a1.1,1.1,0,0,1-1.1,1.09,1.17,1.17,0,0,1-1.05-1.07,1.08,1.08,0,1,1,2.15,0Z"/></svg>