<svg xmlns="http://www.w3.org/2000/svg" width="53.615" height="45.909" viewBox="0 0 53.615 45.909"><defs><style>.a{fill:none;}.a,.b{stroke:#fff;stroke-miterlimit:10;stroke-width:1.5px;}.b{fill:#03343f;}</style></defs><g transform="translate(0.75 0.75)"><ellipse class="a" cx="13.025" cy="13.025" rx="13.025" ry="13.025" transform="translate(9.169 9.179)"/><path class="a" d="M135.84,37.319a20.49,20.49,0,0,1-1.314,3.163l2.776,2.8-8.046,8.068-2.8-2.8a20.275,20.275,0,0,1-3.163,1.312v3.96h-11.4v-3.96a18.378,18.378,0,0,1-3.163-1.312l-2.8,2.8L97.864,43.28l2.8-2.8a18.476,18.476,0,0,1-1.336-3.163H95.389v-11.4h3.936a18.528,18.528,0,0,1,1.336-3.161l-2.8-2.8,8.068-8.068,2.8,2.8a18.552,18.552,0,0,1,3.163-1.312V9.414h11.4v3.958a20.486,20.486,0,0,1,3.163,1.312l2.8-2.8,8.046,8.068-2.776,2.8a20.554,20.554,0,0,1,1.314,3.161h3.936v11.4Z" transform="translate(-95.389 -9.414)"/><path class="b" d="M106.058,37l6.11-5.255h8.224L134.213,17.89l2.216,2.128,2.619-10.365L128.761,12.56l2.146,2.056L119.279,26.274H109.235l-6.843,5.964Z" transform="translate(-87.229 -9.136)"/></g></svg>