<svg id="Layer_1" data-name="Layer 1" xmlns="http://www.w3.org/2000/svg" viewBox="0 0 17.34 21.49"><defs><style>.cls-1{fill:none;stroke:#fff;stroke-miterlimit:10;stroke-width:0.75px;}</style></defs><path class="cls-1" d="M.38,11.62A5.71,5.71,0,0,1,1.84,7.38,5.17,5.17,0,0,1,5.38,5.66a4.44,4.44,0,0,1,2.35.55c.34.17.68.32,1,.46a.84.84,0,0,0,.66,0c.44-.16.88-.33,1.33-.48a12.56,12.56,0,0,1,1.5-.5,3.87,3.87,0,0,1,2.66.43A5.15,5.15,0,0,1,16.56,7.5a.49.49,0,0,1-.08.81A8.77,8.77,0,0,0,14.88,10a3.38,3.38,0,0,0-.57,1.3,2.62,2.62,0,0,0,.32,1.71,4.9,4.9,0,0,0,1.46,1.61,7.17,7.17,0,0,0,.63.45.45.45,0,0,1,.23.51,8.08,8.08,0,0,1-3,4.89,2.94,2.94,0,0,1-2.8.44c-.47-.16-.94-.36-1.4-.56a1.61,1.61,0,0,0-1.29,0c-.5.2-1,.4-1.52.56a3,3,0,0,1-1.66.13A3,3,0,0,1,4,20.21a11,11,0,0,1-2.38-3.57A13.45,13.45,0,0,1,.38,11.62Z"/><path class="cls-1" d="M8.46,4.34a4.19,4.19,0,0,1,.28-1.68A3.22,3.22,0,0,1,10.5.94c.44-.2.9-.36,1.36-.53A.37.37,0,0,1,12.4.7a3.55,3.55,0,0,1-.84,3.21,4.28,4.28,0,0,1-1.65,1A8.7,8.7,0,0,1,9,5.19a.41.41,0,0,1-.54-.39C8.45,4.64,8.46,4.49,8.46,4.34Z"/></svg>