<svg id="Layer_1" data-name="Layer 1" xmlns="http://www.w3.org/2000/svg" viewBox="0 0 20 19.93"><defs><style>.cls-1{fill:#fff;}</style></defs><path class="cls-1" d="M11.12,8.46a2.29,2.29,0,0,0,.21-.23A4.68,4.68,0,0,1,13.1,6.79a4.63,4.63,0,0,1,2.29-.41,7.85,7.85,0,0,1,1.27.15,3.61,3.61,0,0,1,2.61,2,7.36,7.36,0,0,1,.67,3.16C20,13.13,20,14.57,20,16c0,1,0,1.92-.05,2.88,0,.07,0,.14,0,.2-.07.64-.24.81-.89.82-.81,0-1.62,0-2.43,0-.38,0-.51-.15-.53-.53s0-.83,0-1.24c0-1.63,0-3.27,0-4.9a6.14,6.14,0,0,0-.28-2,1.94,1.94,0,0,0-2-1.41,2.32,2.32,0,0,0-2.57,1.95,5.77,5.77,0,0,0-.15,1.18c0,1.24,0,2.47,0,3.71,0,.66,0,1.32,0,2a2.67,2.67,0,0,1-.08.93c-.13.31-.15.37-.5.37H7.88c-.53,0-.69-.15-.69-.68,0-1.62,0-3.24,0-4.87v-7c0-.66,0-.66.66-.66h2.6c.44,0,.49.06.5.51,0,.27,0,.55,0,.82s0,.26.06.39Z"/><path class="cls-1" d="M.36,19.66c0-.1,0-.22,0-.35q0-6,0-12c0-.45.19-.62.61-.62H3.83c.35,0,.43.12.43.47,0,.76,0,1.51,0,2.27q0,4.68,0,9.36a2.5,2.5,0,0,1-.1.72c-.1.33-.18.38-.53.38l-1.36,0c-.35,0-.69,0-1,0A1.18,1.18,0,0,1,.36,19.66Z"/><path class="cls-1" d="M2.29,0A2.26,2.26,0,0,1,4.58,2.32,2.27,2.27,0,0,1,2.29,4.59,2.3,2.3,0,0,1,2.29,0Z"/></svg>