<svg id="Layer_1" data-name="Layer 1" xmlns="http://www.w3.org/2000/svg" viewBox="0 0 32.96 30.93"><defs><style>.cls-1{fill:none;stroke:#f8f8f8;stroke-linecap:round;stroke-linejoin:round;stroke-width:0.75px;}</style></defs><g id="Group_149" data-name="Group 149"><circle id="Ellipse_17" data-name="Ellipse 17" class="cls-1" cx="16.25" cy="6.46" r="6.08"/><circle id="Ellipse_18" data-name="Ellipse 18" class="cls-1" cx="26.5" cy="24.47" r="6.08"/><circle id="Ellipse_19" data-name="Ellipse 19" class="cls-1" cx="6.46" cy="24.47" r="6.08"/><g id="Group_136" data-name="Group 136"><line id="Line_62" data-name="Line 62" class="cls-1" x1="7.68" y1="16.43" x2="10.04" y2="12.72"/><path id="Path_80" data-name="Path 80" class="cls-1" d="M7.24,12.69l3.31-.78.9,3"/></g><g id="Group_137" data-name="Group 137"><line id="Line_63" data-name="Line 63" class="cls-1" x1="22.56" y1="11.91" x2="24.93" y2="15.62"/><path id="Path_81" data-name="Path 81" class="cls-1" d="M22.13,15.65l3.31.78.9-3"/></g><g id="Group_138" data-name="Group 138"><line id="Line_64" data-name="Line 64" class="cls-1" x1="18.84" y1="26.58" x2="14.44" y2="26.6"/><path id="Path_82" data-name="Path 82" class="cls-1" d="M15.7,24.52l-2.15,2.17,2.38,2.06"/></g><line id="Line_65" data-name="Line 65" class="cls-1" x1="15.83" y1="3.85" x2="15.83" y2="8.54"/><line id="Line_66" data-name="Line 66" class="cls-1" x1="25.43" y1="22.53" x2="25.43" y2="27.22"/><line id="Line_67" data-name="Line 67" class="cls-1" x1="27.59" y1="22.53" x2="27.59" y2="27.22"/><line id="Line_68" data-name="Line 68" class="cls-1" x1="4" y1="22.53" x2="4" y2="27.22"/><line id="Line_69" data-name="Line 69" class="cls-1" x1="6.16" y1="22.53" x2="6.16" y2="27.22"/><line id="Line_70" data-name="Line 70" class="cls-1" x1="8.39" y1="22.53" x2="8.39" y2="27.22"/></g></svg>