<svg id="Layer_1" data-name="Layer 1" xmlns="http://www.w3.org/2000/svg" viewBox="0 0 19.54 21.45"><defs><style>.cls-1{fill:none;stroke:#fff;stroke-miterlimit:10;stroke-width:0.75px;}</style></defs><path class="cls-1" d="M19.16,21.45V2.61A2.25,2.25,0,0,0,16.93.38H2.61A2.25,2.25,0,0,0,.38,2.61V21.45"/><line class="cls-1" x1="0.53" y1="3.77" x2="19.16" y2="3.77"/><path class="cls-1" d="M4.43,13.55a3.53,3.53,0,0,1,.91-2.63A3.18,3.18,0,0,1,7.52,9.86,2.74,2.74,0,0,1,9,10.2l.63.29a.58.58,0,0,0,.41,0l.82-.3c.3-.1.61-.23.92-.3a2.43,2.43,0,0,1,1.65.26,3.34,3.34,0,0,1,1,.84c.16.2.14.33,0,.5a5.59,5.59,0,0,0-1,1.07,2,2,0,0,0-.35.8,1.57,1.57,0,0,0,.2,1.06,3,3,0,0,0,.89,1c.13.09.26.19.4.27a.3.3,0,0,1,.14.32,4.9,4.9,0,0,1-1.84,3,1.79,1.79,0,0,1-1.73.27,7,7,0,0,1-.86-.34,1,1,0,0,0-.8,0c-.31.13-.63.25-.94.35a1.91,1.91,0,0,1-1,.08,1.89,1.89,0,0,1-.84-.52,6.68,6.68,0,0,1-1.47-2.21A8.39,8.39,0,0,1,4.43,13.55Z"/><path class="cls-1" d="M9.43,9A2.6,2.6,0,0,1,9.6,8a2,2,0,0,1,1.09-1.07c.27-.12.56-.23.84-.33s.31,0,.33.18a2.17,2.17,0,0,1-.52,2,2.54,2.54,0,0,1-1,.63l-.56.16a.26.26,0,0,1-.34-.25A2.61,2.61,0,0,1,9.43,9Z"/></svg>