<svg id="Layer_1" data-name="Layer 1" xmlns="http://www.w3.org/2000/svg" viewBox="0 0 20.25 21.44"><defs><style>.cls-1,.cls-2{fill:none;}.cls-1,.cls-2,.cls-3{stroke:#fff;stroke-miterlimit:10;}.cls-1{stroke-width:0.61px;}.cls-2,.cls-3{stroke-width:0.75px;}.cls-3{fill:#0c0c0c;}</style></defs><circle class="cls-1" cx="12.77" cy="6.05" r="2.71"/><path class="cls-2" d="M17.44,7.51a5.77,5.77,0,0,1-.34.81l.71.72L15.75,11.1,15,10.38a4.79,4.79,0,0,1-.81.34v1H11.31v-1a4.79,4.79,0,0,1-.81-.34l-.71.72L7.72,9l.72-.72a4.79,4.79,0,0,1-.34-.81h-1V4.6h1a4.19,4.19,0,0,1,.34-.81l-.72-.72L9.79,1l.71.71a5.73,5.73,0,0,1,.81-.33v-1h2.92v1a5.73,5.73,0,0,1,.81.33L15.75,1l2.06,2.06-.71.72a4.92,4.92,0,0,1,.34.81h1V7.51Z"/><path class="cls-3" d="M11,15l7-2.45a1.47,1.47,0,0,1,1.74.62h0a1.47,1.47,0,0,1-.52,2L9.93,20.54a4,4,0,0,1-3.21.34L.11,18.77"/><path class="cls-3" d="M.11,10.59h1.7a2.51,2.51,0,0,1,1.78.73l.9.87a2.54,2.54,0,0,0,1.77.72H9.62a1.4,1.4,0,0,1,1.4,1.4h0a1.4,1.4,0,0,1-1.4,1.41h-4"/></svg>