<svg id="Layer_1" data-name="Layer 1" xmlns="http://www.w3.org/2000/svg" viewBox="0 0 32.6 26.17"><defs><style>.cls-1{fill:none;stroke:#f8f8f8;stroke-linecap:round;stroke-linejoin:round;stroke-width:0.75px;}</style></defs><g id="Group_135" data-name="Group 135"><path id="Rectangle_61" data-name="Rectangle 61" class="cls-1" d="M1.65,7.12h9.76v11H1.65A1.27,1.27,0,0,1,.38,16.88V8.39A1.27,1.27,0,0,1,1.65,7.12Z"/><path id="Path_78" data-name="Path 78" class="cls-1" d="M11.41,7.12,23.33.51a1,1,0,0,1,1.41.4,1,1,0,0,1,.13.5V23.86a1,1,0,0,1-1,1,1.09,1.09,0,0,1-.5-.13L11.41,18.15"/><path id="Path_79" data-name="Path 79" class="cls-1" d="M2.63,18.4l1.83,7.4H9.15L7.46,18.35"/><line id="Line_59" data-name="Line 59" class="cls-1" x1="28.15" y1="7" x2="31.81" y2="3.34"/><line id="Line_60" data-name="Line 60" class="cls-1" x1="28.15" y1="17.22" x2="31.81" y2="20.88"/><line id="Line_61" data-name="Line 61" class="cls-1" x1="27.82" y1="11.92" x2="32.19" y2="11.92"/></g></svg>