<svg id="Layer_1" data-name="Layer 1" xmlns="http://www.w3.org/2000/svg" viewBox="0 0 29.44 29.44"><defs><style>.cls-1,.cls-2{fill:none;stroke:#f8f8f8;stroke-linecap:round;stroke-linejoin:round;}.cls-1{stroke-width:0.56px;}.cls-2{stroke-width:0.68px;}</style></defs><g id="Group_154" data-name="Group 154"><circle id="Ellipse_20" data-name="Ellipse 20" class="cls-1" cx="14.72" cy="14.88" r="5.74"/><circle id="Ellipse_21" data-name="Ellipse 21" class="cls-2" cx="14.72" cy="2.74" r="2.4"/><circle id="Ellipse_22" data-name="Ellipse 22" class="cls-2" cx="14.72" cy="26.7" r="2.4"/><line id="Line_81" data-name="Line 81" class="cls-1" x1="14.72" y1="5.13" x2="14.72" y2="9.14"/><line id="Line_82" data-name="Line 82" class="cls-1" x1="14.72" y1="20.63" x2="14.72" y2="24.31"/><circle id="Ellipse_23" data-name="Ellipse 23" class="cls-1" cx="14.72" cy="14.88" r="5.74"/><circle id="Ellipse_24" data-name="Ellipse 24" class="cls-2" cx="14.72" cy="2.74" r="2.4"/><circle id="Ellipse_25" data-name="Ellipse 25" class="cls-2" cx="14.72" cy="26.7" r="2.4"/><line id="Line_83" data-name="Line 83" class="cls-1" x1="14.72" y1="5.13" x2="14.72" y2="9.14"/><line id="Line_84" data-name="Line 84" class="cls-1" x1="14.72" y1="20.63" x2="14.72" y2="24.31"/><circle id="Ellipse_26" data-name="Ellipse 26" class="cls-2" cx="26.7" cy="14.72" r="2.4"/><circle id="Ellipse_27" data-name="Ellipse 27" class="cls-2" cx="2.74" cy="14.72" r="2.4"/><line id="Line_85" data-name="Line 85" class="cls-1" x1="24.3" y1="14.72" x2="20.63" y2="14.72"/><line id="Line_86" data-name="Line 86" class="cls-1" x1="8.81" y1="14.72" x2="5.13" y2="14.72"/><circle id="Ellipse_28" data-name="Ellipse 28" class="cls-2" cx="6.25" cy="6.25" r="2.4"/><circle id="Ellipse_29" data-name="Ellipse 29" class="cls-2" cx="23.19" cy="23.19" r="2.4"/><line id="Line_87" data-name="Line 87" class="cls-1" x1="7.94" y1="7.94" x2="10.77" y2="10.77"/><line id="Line_88" data-name="Line 88" class="cls-1" x1="18.89" y1="18.89" x2="21.5" y2="21.5"/><circle id="Ellipse_30" data-name="Ellipse 30" class="cls-2" cx="6.25" cy="6.25" r="2.4"/><circle id="Ellipse_31" data-name="Ellipse 31" class="cls-2" cx="23.19" cy="23.19" r="2.4"/><line id="Line_89" data-name="Line 89" class="cls-1" x1="7.94" y1="7.94" x2="10.77" y2="10.77"/><line id="Line_90" data-name="Line 90" class="cls-1" x1="18.89" y1="18.89" x2="21.5" y2="21.5"/><circle id="Ellipse_32" data-name="Ellipse 32" class="cls-2" cx="23.19" cy="6.25" r="2.4"/><circle id="Ellipse_33" data-name="Ellipse 33" class="cls-2" cx="6.25" cy="23.19" r="2.4"/><line id="Line_91" data-name="Line 91" class="cls-1" x1="21.5" y1="7.94" x2="18.66" y2="10.77"/><line id="Line_92" data-name="Line 92" class="cls-1" x1="10.54" y1="18.89" x2="7.94" y2="21.5"/></g></svg>