<svg id="Layer_1" data-name="Layer 1" xmlns="http://www.w3.org/2000/svg" viewBox="0 0 20.25 21.61"><defs><style>.cls-1{fill:#0c0c0c;}.cls-1,.cls-2{stroke:#fff;stroke-miterlimit:10;stroke-width:0.75px;}.cls-2{fill:none;}</style></defs><path class="cls-1" d="M11,15.21l7-2.45a1.47,1.47,0,0,1,1.74.61h0a1.47,1.47,0,0,1-.52,2.05L9.93,20.7A4,4,0,0,1,6.72,21L.11,18.93"/><path class="cls-1" d="M.11,10.76h1.7a2.54,2.54,0,0,1,1.78.72l.9.87a2.54,2.54,0,0,0,1.77.72H9.62A1.4,1.4,0,0,1,11,14.48h0a1.4,1.4,0,0,1-1.4,1.4h-4"/><path class="cls-2" d="M13.26,11.3c-1.4-1.3-2.78-2.55-4.14-3.83A6.71,6.71,0,0,1,7.5,5.22a3.53,3.53,0,0,1,.63-3.91A2.94,2.94,0,0,1,12.91,2c.36.63.66.63,1.08,0A3.08,3.08,0,0,1,16.24.51a3,3,0,0,1,3.22,2.18,4,4,0,0,1-.93,3.9,17.89,17.89,0,0,1-1.8,1.79C15.61,9.36,14.45,10.3,13.26,11.3Z"/></svg>