<svg id="Layer_1" data-name="Layer 1" xmlns="http://www.w3.org/2000/svg" viewBox="0 0 23.29 21.81"><defs><style>.cls-1{fill:none;stroke:#fff;stroke-miterlimit:10;stroke-width:0.75px;}</style></defs><circle class="cls-1" cx="10.8" cy="10.93" r="3.85"/><path class="cls-1" d="M16.2,12.62a5.39,5.39,0,0,1-.39.93l.82.83-2.38,2.39-.82-.83a6.42,6.42,0,0,1-.94.39V17.5H9.12V16.33a5.17,5.17,0,0,1-.94-.39l-.83.83L5,14.38l.82-.83a5.39,5.39,0,0,1-.39-.93H4.23V9.24H5.4a5.39,5.39,0,0,1,.39-.93L5,7.48,7.35,5.09l.83.83a5.17,5.17,0,0,1,.94-.39V4.36h3.37V5.53a6.42,6.42,0,0,1,.94.39l.82-.83,2.38,2.39-.82.83a5.39,5.39,0,0,1,.39.93h1.17v3.38Z"/><path class="cls-1" d="M21.44,10.91A10.52,10.52,0,1,1,20.22,6"/><polyline class="cls-1" points="19.65 12.14 21.4 10.77 23.05 12.18"/></svg>