<svg id="Layer_1" data-name="Layer 1" xmlns="http://www.w3.org/2000/svg" viewBox="0 0 24.83 21.26"><defs><style>.cls-1{fill:none;}.cls-1,.cls-2{stroke:#fff;stroke-miterlimit:10;stroke-width:0.75px;}.cls-2{fill:#0c0c0c;}</style></defs><circle class="cls-1" cx="10.62" cy="10.63" r="6.02"/><path class="cls-1" d="M19.06,13.26a9,9,0,0,1-.61,1.46L19.73,16,16,19.74l-1.3-1.29a9,9,0,0,1-1.46.61v1.82H8V19.06a8.18,8.18,0,0,1-1.46-.61l-1.3,1.29L1.52,16l1.29-1.3a8.21,8.21,0,0,1-.62-1.46H.38V8H2.19a8.21,8.21,0,0,1,.62-1.46L1.52,5.24,5.24,1.52l1.3,1.29A8.18,8.18,0,0,1,8,2.2V.38h5.26V2.2a9,9,0,0,1,1.46.61L16,1.52l3.71,3.72-1.28,1.3A9,9,0,0,1,19.06,8h1.81v5.26Z"/><polygon class="cls-2" points="9.07 13.24 11.89 10.82 15.69 10.82 22.07 4.42 23.1 5.4 24.31 0.61 19.56 1.96 20.55 2.91 15.18 8.29 10.54 8.29 7.38 11.04 9.07 13.24"/></svg>