<svg xmlns="http://www.w3.org/2000/svg" width="63.866" height="39.24" viewBox="0 0 63.866 39.24"><defs><style>.a{fill:none;stroke:#fff;stroke-miterlimit:10;stroke-width:1.5px;}</style></defs><g transform="translate(0.75 0.75)"><path class="a" d="M16.12,31.9H42.252V.375H.375V31.9H5.9" transform="translate(-0.375 -0.375)"/><path class="a" d="M21.905,16.854h6.2" transform="translate(19.283 14.672)"/><path class="a" d="M38.054,27.747h2.028a2.735,2.735,0,0,0,2.736-2.736V15.79a2.8,2.8,0,0,0-.574-1.684L35.95,6a2.783,2.783,0,0,0-2.181-1.071H22.195" transform="translate(19.548 3.779)"/><path class="a" d="M25.718,4.854v7.641a2.393,2.393,0,0,0,2.393,2.393H39.6" transform="translate(22.765 3.715)"/><path class="a" d="M7.46,12.454l3.491,3.235a.653.653,0,0,0,.9-.019L22.03,5.5" transform="translate(6.094 4.303)"/><ellipse class="a" cx="5.209" cy="5.209" rx="5.209" ry="5.209" transform="translate(5.428 27.323)"/><ellipse class="a" cx="5.209" cy="5.209" rx="5.209" ry="5.209" transform="translate(47.286 27.323)"/></g></svg>