<svg id="Layer_1" data-name="Layer 1" xmlns="http://www.w3.org/2000/svg" viewBox="0 0 20.94 19"><defs><style>.cls-1{fill:none;stroke:#fff;stroke-miterlimit:10;stroke-width:0.75px;}</style></defs><circle class="cls-1" cx="10.38" cy="11.96" r="3.04"/><path class="cls-1" d="M4.17,18.76a7.61,7.61,0,0,1,12.42,0"/><circle class="cls-1" cx="4.37" cy="14.18" r="2.01"/><path class="cls-1" d="M.55,18.44a5.3,5.3,0,0,1,3.82-2.18,4.16,4.16,0,0,1,1.82.42"/><circle class="cls-1" cx="16.59" cy="14.18" r="2.01"/><path class="cls-1" d="M14.63,16.73a4.29,4.29,0,0,1,2-.47,5.16,5.16,0,0,1,3.76,2.18"/><path class="cls-1" d="M16.36,12.17l2.76-2.9a5.14,5.14,0,0,0,1.31-5,4.94,4.94,0,0,0-7-3.36,5.56,5.56,0,0,0-1.32,1L10.46,3.53l-.14-.15L8.91,1.91A4.86,4.86,0,0,0,1,2.92,5.38,5.38,0,0,0,1.84,9.3l2.74,2.87h0"/></svg>