<svg id="Layer_1" data-name="Layer 1" xmlns="http://www.w3.org/2000/svg" viewBox="0 0 22.54 12.82"><defs><style>.cls-1{fill:none;stroke:#fff;stroke-miterlimit:10;stroke-width:0.75px;}</style></defs><path class="cls-1" d="M14.4,4.25A2.27,2.27,0,0,1,17,4.37a2.58,2.58,0,0,1,.83,2.49,9.91,9.91,0,0,1,1.36-.23,2.9,2.9,0,0,1,.71,5.72,2.8,2.8,0,0,1-.7.09H3.3a2.91,2.91,0,1,1,.88-5.69l.27.09c0-.47,0-.91,0-1.36A4.67,4.67,0,0,1,4.87,3.4,4.9,4.9,0,0,1,9,.4a5,5,0,0,1,5.34,3.74A.48.48,0,0,0,14.4,4.25Z"/></svg>