<svg id="Layer_1" data-name="Layer 1" xmlns="http://www.w3.org/2000/svg" viewBox="0 0 24.15 23.04"><defs><style>.cls-1{fill:none;stroke:#fff;stroke-miterlimit:10;stroke-width:0.75px;}</style></defs><path class="cls-1" d="M11.93,15.36c-1.4-1.3-2.78-2.55-4.14-3.83A6.55,6.55,0,0,1,6.18,9.28,3.53,3.53,0,0,1,6.8,5.37a2.94,2.94,0,0,1,4.78.73c.36.64.66.63,1.08,0a3.06,3.06,0,0,1,2.25-1.53,3,3,0,0,1,3.22,2.17,4,4,0,0,1-.93,3.9,17.89,17.89,0,0,1-1.8,1.79C14.28,13.43,13.12,14.36,11.93,15.36Z"/><path class="cls-1" d="M23.77,3.47V15.59a3,3,0,0,1-2.89,3.1H7.19L2.41,22.14l.86-3.45h0a3,3,0,0,1-2.89-3.1V3.47A3,3,0,0,1,3.27.38H20.88A3,3,0,0,1,23.77,3.47Z"/></svg>