<svg id="Layer_1" data-name="Layer 1" xmlns="http://www.w3.org/2000/svg" viewBox="0 0 20.56 17.98"><defs><style>.cls-1{fill:#fff;}</style></defs><path class="cls-1" d="M.05,16.4c.1-.2.31-.2.5-.2a8.7,8.7,0,0,0,3-.65,8.41,8.41,0,0,0,2-1.1,1,1,0,0,0,.18-.17,1.34,1.34,0,0,0,0-.17c-.12,0-.23-.07-.35-.09a4.92,4.92,0,0,1-2.14-.88,4.59,4.59,0,0,1-1.29-1.45.52.52,0,0,1-.08-.19c-.05-.22,0-.33.23-.35s.59-.05.88-.08a.67.67,0,0,0,.52-.25c-.14-.06-.24-.13-.35-.17A4.83,4.83,0,0,1,.67,8.73,4.53,4.53,0,0,1,0,7a3.36,3.36,0,0,1,0-.45,4.7,4.7,0,0,0,1.91.3c-.11-.14-.16-.23-.23-.3A5.46,5.46,0,0,1,.21,4.34a4.25,4.25,0,0,1,.13-3A2,2,0,0,1,.49,1.1a3.85,3.85,0,0,1,.57.43A10,10,0,0,0,2.74,3,11.71,11.71,0,0,0,5.87,4.77a11.47,11.47,0,0,0,3.66.83.48.48,0,0,0,.12,0c.32,0,.37-.08.37-.41a8.67,8.67,0,0,1,0-1.53A4.28,4.28,0,0,1,11.61,1a4.19,4.19,0,0,1,2-.94,4.31,4.31,0,0,1,2.57.29,6.58,6.58,0,0,1,1.35.89.53.53,0,0,0,.5.14L19.68.87c.14,0,.28-.21.42-.06s0,.36-.1.49c-.34.4-.7.79-1.06,1.18l-.21.22c.32.22.62,0,.9,0s.59-.14.9-.21c.07.15,0,.25-.08.35A4.79,4.79,0,0,1,19.32,4a1,1,0,0,0-.43.86A11.65,11.65,0,0,1,18.54,8a15.19,15.19,0,0,1-.63,2A12.25,12.25,0,0,1,16,13.2a12,12,0,0,1-2.65,2.53A13.57,13.57,0,0,1,11.08,17a13.11,13.11,0,0,1-3,.82,13.41,13.41,0,0,1-5.39-.27,10.62,10.62,0,0,1-2.42-.93L.08,16.5A.41.41,0,0,1,.05,16.4Z"/></svg>