<svg id="Layer_1" data-name="Layer 1" xmlns="http://www.w3.org/2000/svg" xmlns:xlink="http://www.w3.org/1999/xlink" viewBox="0 0 20.48 23.52"><defs><style>.cls-1,.cls-3{fill:none;}.cls-2{clip-path:url(#clip-path);}.cls-3,.cls-4{stroke:#fff;stroke-miterlimit:10;stroke-width:0.75px;}.cls-4{fill:#0c0c0c;}</style><clipPath id="clip-path"><rect class="cls-1" x="-5.22" width="28.27" height="23.52"/></clipPath></defs><g class="cls-2"><path class="cls-3" d="M3.55,29.79v3.94a4.08,4.08,0,0,1-.26-7.62V10.72a4.09,4.09,0,0,1,.26-7.63V7H6.11V3a4.1,4.1,0,0,1,.43,7.68V26.11a4.1,4.1,0,0,1-.43,7.68v-4Z"/><path class="cls-4" d="M15.75,12.11v5.4H8.08V16.1H4.33A3.94,3.94,0,0,1,5.5,13.28a3.8,3.8,0,0,1,2.58-1.15.93.93,0,0,1,.24,0Z"/><rect class="cls-4" x="17.28" y="12.1" width="2.21" height="5.4"/><line class="cls-4" x1="15.96" y1="12.92" x2="17.22" y2="12.92"/><line class="cls-4" x1="15.96" y1="16.42" x2="17.22" y2="16.42"/><rect class="cls-4" x="10.13" y="17.54" width="3.78" height="18.24"/></g></svg>