<svg id="Layer_1" data-name="Layer 1" xmlns="http://www.w3.org/2000/svg" viewBox="0 0 19.75 23.75"><defs><style>.cls-1{fill:none;}.cls-1,.cls-2{stroke:#fff;stroke-miterlimit:10;stroke-width:0.5px;}.cls-2{fill:#0c0c0c;}</style></defs><circle class="cls-1" cx="9.88" cy="9.88" r="9.63"/><path class="cls-1" d="M12.45.6a16.45,16.45,0,0,1,2.44,5.11,16.24,16.24,0,0,1,.63,4.2A16.14,16.14,0,0,1,15,14.33,15.65,15.65,0,0,1,12.87,19"/><line class="cls-1" x1="9.96" y1="0.25" x2="9.96" y2="19.5"/><path class="cls-1" d="M7.41.57a16.64,16.64,0,0,0-3.1,9.34,16,16,0,0,0,.5,4.25A16.22,16.22,0,0,0,7,19.06"/><line class="cls-1" x1="19.54" y1="9.91" x2="0.29" y2="9.91"/><path class="cls-1" d="M17.79,4.4a15.66,15.66,0,0,1-2.9,1.31A16,16,0,0,1,10,6.58H9.88a15.94,15.94,0,0,1-5-.71A15.67,15.67,0,0,1,1.83,4.59"/><path class="cls-1" d="M17.65,15.53A15.94,15.94,0,0,0,15,14.33a16,16,0,0,0-5-.9H9.88a16.17,16.17,0,0,0-5.07.74A15.59,15.59,0,0,0,2,15.36H2"/><polygon class="cls-2" points="17.83 18.88 15.91 20.11 17.38 22.41 15.84 23.4 14.36 21.1 12.44 22.33 12.15 15.94 17.83 18.88"/></svg>