<svg xmlns="http://www.w3.org/2000/svg" width="105.139" height="23.658" viewBox="0 0 105.139 23.658"><defs><style>.a{fill:#6d6e71;}</style></defs><g transform="translate(340.362 -100.685)"><path class="a" d="M-323.177,115.922l3.026.764a10.177,10.177,0,0,1-3.423,5.685,9.435,9.435,0,0,1-6.044,1.956,10.855,10.855,0,0,1-6.01-1.5,9.406,9.406,0,0,1-3.526-4.359,15.584,15.584,0,0,1-1.208-6.129A13.471,13.471,0,0,1-339,106.1a9.351,9.351,0,0,1,3.883-4.037,11.338,11.338,0,0,1,5.544-1.381,9.367,9.367,0,0,1,5.77,1.749,9.068,9.068,0,0,1,3.26,4.91l-2.981.7a7.056,7.056,0,0,0-2.307-3.633,6.15,6.15,0,0,0-3.8-1.139,7.386,7.386,0,0,0-4.407,1.264,6.658,6.658,0,0,0-2.486,3.391,13.631,13.631,0,0,0-.719,4.389,13.927,13.927,0,0,0,.852,5.091,6.3,6.3,0,0,0,2.643,3.252,7.4,7.4,0,0,0,3.883,1.075,6.513,6.513,0,0,0,4.3-1.464A7.5,7.5,0,0,0-323.177,115.922Z" transform="translate(0)"/><path class="a" d="M-331.895,111.713q0-4.6,2.558-6.813a7.708,7.708,0,0,1,5.209-1.842,7.436,7.436,0,0,1,5.584,2.238,8.514,8.514,0,0,1,2.166,6.183,10.968,10.968,0,0,1-.958,5.03,6.771,6.771,0,0,1-2.792,2.845,8.125,8.125,0,0,1-4,1.014,7.439,7.439,0,0,1-5.621-2.23Q-331.894,115.91-331.895,111.713Zm2.885,0a7.046,7.046,0,0,0,1.389,4.764,4.441,4.441,0,0,0,3.492,1.584,4.424,4.424,0,0,0,3.478-1.592,7.223,7.223,0,0,0,1.387-4.849,6.856,6.856,0,0,0-1.395-4.655,4.445,4.445,0,0,0-3.471-1.584,4.459,4.459,0,0,0-3.492,1.576A7.018,7.018,0,0,0-329.01,111.713Z" transform="translate(14.068 3.943)"/><path class="a" d="M-324.84,120V103.433h2.526v2.51a6.869,6.869,0,0,1,1.786-2.323,3.131,3.131,0,0,1,1.8-.562,5.5,5.5,0,0,1,2.885.9l-.969,2.606a3.991,3.991,0,0,0-2.057-.609,2.677,2.677,0,0,0-1.653.554,3,3,0,0,0-1.046,1.536,10.963,10.963,0,0,0-.469,3.276V120Z" transform="translate(25.789 3.943)"/><path class="a" d="M-308.912,114.662l2.9.359a7.084,7.084,0,0,1-2.542,3.944,7.648,7.648,0,0,1-4.74,1.4,7.571,7.571,0,0,1-5.762-2.238,8.74,8.74,0,0,1-2.129-6.276,9.148,9.148,0,0,1,2.153-6.486,7.276,7.276,0,0,1,5.581-2.31,7.083,7.083,0,0,1,5.427,2.262,8.974,8.974,0,0,1,2.105,6.364c0,.165-.005.415-.016.748h-12.349a6.358,6.358,0,0,0,1.544,4.178,4.6,4.6,0,0,0,3.463,1.451,4.281,4.281,0,0,0,2.635-.812A5.384,5.384,0,0,0-308.912,114.662Zm-9.217-4.538h9.249a5.628,5.628,0,0,0-1.059-3.135,4.306,4.306,0,0,0-3.478-1.621,4.464,4.464,0,0,0-3.252,1.293A5.135,5.135,0,0,0-318.129,110.124Z" transform="translate(31.864 3.943)"/><path class="a" d="M-304.717,100.832h4.6V115.3a14.77,14.77,0,0,1-.5,4.367,6.191,6.191,0,0,1-2.433,3.2,8.058,8.058,0,0,1-4.647,1.208,6.889,6.889,0,0,1-5.208-1.895,7.763,7.763,0,0,1-1.842-5.56l4.352-.5a6.1,6.1,0,0,0,.577,2.776,2.491,2.491,0,0,0,2.278,1.232,2.523,2.523,0,0,0,2.182-.881,6.947,6.947,0,0,0,.639-3.657Z" transform="translate(42.562 0.244)"/><path class="a" d="M-307.842,116.5l4.49-.436a5.5,5.5,0,0,0,1.645,3.322,4.987,4.987,0,0,0,3.345,1.059A5.146,5.146,0,0,0-295,119.5a2.813,2.813,0,0,0,1.131-2.206,2.085,2.085,0,0,0-.476-1.381,3.775,3.775,0,0,0-1.661-.99q-.81-.279-3.7-1a12.564,12.564,0,0,1-5.208-2.262,5.949,5.949,0,0,1-2.105-4.6,5.88,5.88,0,0,1,.99-3.268,6.2,6.2,0,0,1,2.856-2.315,11.445,11.445,0,0,1,4.5-.8q4.3,0,6.481,1.887a6.659,6.659,0,0,1,2.284,5.038l-4.615.2a3.918,3.918,0,0,0-1.272-2.534,4.655,4.655,0,0,0-2.922-.772,5.277,5.277,0,0,0-3.151.825,1.665,1.665,0,0,0-.732,1.421,1.757,1.757,0,0,0,.684,1.387,12.109,12.109,0,0,0,4.242,1.528,22.6,22.6,0,0,1,4.982,1.645,6.389,6.389,0,0,1,2.526,2.326,6.781,6.781,0,0,1,.913,3.641,6.746,6.746,0,0,1-1.091,3.681,6.546,6.546,0,0,1-3.087,2.55,13,13,0,0,1-4.974.833q-4.335,0-6.659-2A8.711,8.711,0,0,1-307.842,116.5Z" transform="translate(54.031)"/></g></svg>