<svg id="Layer_1" data-name="Layer 1" xmlns="http://www.w3.org/2000/svg" viewBox="0 0 291.9 91.59"><defs><style>.cls-1{fill:#fff;}</style></defs><title>White logo transparent bg</title><path class="cls-1" d="M42.8,36.36V52.9H39.12V36.36H29.43V32.94H52.52v3.42Z"/><path class="cls-1" d="M57.54,52.9v-20H79.18v3.42h-18v4.56H77.46v3.42H61.22v5.11H79.75V52.9Z"/><path class="cls-1" d="M84.94,32.94h15.82c4.27,0,7.69,1.63,7.69,6.42s-3.47,6.3-7.66,6.3h-.74l9.23,7.24h-5.7l-8.72-7.13H88.62V52.9H84.94Zm15.9,9.38c2.23,0,3.85-.74,3.85-3s-1.59-3-3.82-3H88.62v6Z"/><path class="cls-1" d="M139.79,52.9h-4.25L133,48.62H118.78l-2.54,4.28H112l11.77-20H128Zm-18.5-8.56-.54.86H131l-.52-.86-4.61-8.18Z"/><path class="cls-1" d="M163.74,32.94h3.67v20h-3.67L147.2,37.59l.09,3V52.9h-3.68v-20h3.68l16.5,15.34,0-3.08Z"/><path class="cls-1" d="M192.59,32.94h3.67v20h-3.67L176.06,37.59l.08,3V52.9h-3.68v-20h3.68l16.5,15.34,0-3.08Z"/><path class="cls-1" d="M221.9,32.94h3.67v12c0,5.9-4,8.41-12,8.41s-12-2.51-12-8.41v-12h3.68v12c0,4,3.36,5,8.29,5s8.3-1,8.3-5Z"/><path class="cls-1" d="M243.71,49.25l-9.64-11.4.09,2.87V52.9h-3.68v-20h3.68l10.69,12.69,10.68-12.69h3.68v20h-3.68V40.72l.06-2.87L246,49.25Z"/></svg>